<?xml version="1.0" encoding="utf-8"?>
<!DOCTYPE svg PUBLIC "-//W3C//DTD SVG 1.1//EN" "http://www.w3.org/Graphics/SVG/1.1/DTD/svg11.dtd" [
	<!ENTITY ns_extend "http://ns.adobe.com/Extensibility/1.0/">
	<!ENTITY ns_ai "http://ns.adobe.com/AdobeIllustrator/10.0/">
	<!ENTITY ns_graphs "http://ns.adobe.com/Graphs/1.0/">
	<!ENTITY ns_vars "http://ns.adobe.com/Variables/1.0/">
	<!ENTITY ns_imrep "http://ns.adobe.com/ImageReplacement/1.0/">
	<!ENTITY ns_sfw "http://ns.adobe.com/SaveForWeb/1.0/">
	<!ENTITY ns_custom "http://ns.adobe.com/GenericCustomNamespace/1.0/">
	<!ENTITY ns_adobe_xpath "http://ns.adobe.com/XPath/1.0/">
]>
<svg version="1.1" id="Buenos_Aires" xmlns:x="&ns_extend;" xmlns:i="&ns_ai;" xmlns:graph="&ns_graphs;"
	 xmlns="http://www.w3.org/2000/svg" xmlns:xlink="http://www.w3.org/1999/xlink" x="0px" y="0px" width="1151.934px"
	 height="1172.888px" viewBox="0 0 1151.934 1172.888" enable-background="new 0 0 1151.934 1172.888" xml:space="preserve">
<metadata>
	<sfw  xmlns="&ns_sfw;">
		<slices></slices>
		<sliceSourceBounds  height="9724.93" width="22623.879" x="0" y="0" bottomLeftOrigin="true"></sliceSourceBounds>
	</sfw>
</metadata>
<g>
	<polygon fill="#F5F5F5" points="965.075,454.499 954.204,460.307 949.7,461.335 947.102,453.108 944.668,453.62 947.879,464.663 
		935.911,465.854 936.79,476.397 940.493,475.975 943.743,510.331 939.926,510.651 940.313,514.6 943.977,514.264 947.473,551.514 
		943.852,551.983 944.192,556.245 947.77,556.073 950.715,586.76 947.149,587.127 947.649,591.42 951.211,591.116 954.122,621.323 
		957.473,623.823 962.684,627.709 964.45,625.51 973.704,632.577 990.672,645.538 990.415,646.081 994.618,649.366 994.985,649.069 
		1002.153,657.19 1007.016,657.784 1012.844,673.725 1015.825,675.737 1021.954,678.217 1035.227,672.323 1027.309,670.612 
		1022.586,654.327 1031.266,647.194 1039.055,655.256 1043.141,651.53 1051.821,659.292 1058.965,655.877 1045.309,642.534 
		1044.547,640.674 1055.137,640.053 1064.329,649.366 1068.668,651.846 1069.309,655.413 1075.688,654.639 1081.688,652.467 
		1090.497,644.241 1089.985,641.139 1082.583,632.92 1081.946,631.834 1073.774,629.815 1066.497,622.838 1063.051,620.667 
		1056.926,620.51 1054.372,622.374 1050.543,618.03 1052.969,615.698 1056.29,615.233 1059.606,616.635 1065.352,616.784 
		1071.098,616.944 1078.372,617.409 1081.051,614.463 1079.899,610.889 1078.243,608.104 1077.731,601.893 1076.329,598.792 
		1073.774,594.295 1066.118,593.209 1064.711,593.983 1058.965,593.053 1048.887,595.069 1045.668,599.522 1045.028,605.702 
		1046.309,609.803 1047.993,613.377 1047.481,616.784 1046.657,618.928 1044.922,617.104 1045.797,615.526 1045.543,612.397 
		1043.403,610.37 1040.836,610.131 1038.586,611.428 1037.668,613.049 1037.536,614.92 1038.469,616.999 1040.309,618.284 
		1042.051,618.432 1043.516,617.901 1044.989,619.725 1042.442,620.924 1038.934,621.819 1035.801,619.358 1035.731,618.084 
		1034.864,616.44 1034.141,615.327 1033.958,612.186 1032.704,610.167 1031.559,608.159 1030.7,605.506 1030.676,601.881 
		1032.485,599.198 1034.696,598.002 1038.809,601.385 1042.665,600.061 1042.754,599.729 1043.727,596.057 1040.247,594.866 
		1035.907,595.159 1033.344,596.549 1030.067,595.733 1025.481,595.834 1020.875,600.311 1016.45,600.542 1009.629,598.073 
		1009.629,597.143 1009.629,596.561 1009.629,595.167 1016.45,590.905 1022.161,583.745 1030.825,584.862 1042.993,586.428 
		1053.684,583.069 1056.325,582.827 1058.454,583.358 1061.973,582.62 1064.188,580.381 1066.032,578.143 1066.657,574.249 
		1065.293,563.362 1061.606,546.112 1059.04,542.866 1058.614,541.538 1045.454,529.499 1043.727,528.647 1036.356,523.272 
		1034.508,511.85 1033.59,509.835 1031.235,496.522 1030.458,495.956 1029.352,493.487 1025.852,491.694 1024.926,489.01 
		1021.793,487.444 1019.766,484.983 1015.895,481.846 1013.868,478.26 1009.813,476.022 1001.887,467.288 1001.336,464.604 
		996.176,460.135 991.915,458.003 989.145,455.659 985.68,453.901 984.618,454.112 981.95,452.944 972.946,451.393 965.434,451.28 	
		"/>
	<polygon fill="#F5F5F5" points="18140.598,-8550.904 18140.598,-6309.693 18140.598,-4068.482 22622.977,-4068.482 
		22622.977,-8550.904 	"/>
</g>
<polygon fill="#F5F5F5" points="1153.098,803.513 1122.719,773.831 1124.575,770.944 1101.278,750.971 1100.86,740.737 
	1105.95,739.299 1109.231,736.057 1107.172,707.295 1102.942,693.792 1104.614,693.143 1106.586,690.588 1118.84,671.249 
	1118.364,671.249 1104.454,692.026 1102.485,693.194 1100.122,692.924 1094.856,689.292 1094.356,686.545 1094.235,685.905 
	1092.485,687.909 1086.766,689.733 1085.465,688.792 1086.188,680.135 1081.375,681.803 1073.497,684.522 1074.735,688.792 
	1073.708,699.647 1072.782,709.448 1071.946,718.264 1069.368,720.522 1062.973,712.491 1063.446,706.081 1064.329,694.112 
	1064.829,687.409 1057.192,689.417 1050.977,683.709 1047.903,680.885 1033.661,685.276 1031.934,686.588 1030.899,688.924 
	1031.333,695.706 1034.848,700.553 1050.012,720.545 1055.614,721.143 1061.356,732.678 1056.368,735.338 1056.836,736.143 
	1058.766,736.342 1060.43,737.893 1061.672,741.389 1062.262,745.038 1064.481,749.643 1067.512,759.729 1067.715,760.405 
	1071.747,770.709 1071.657,773.698 1069.645,843.268 1066.047,848.249 1064.946,848.448 1064.176,849.182 1064.012,850.319 
	1063.102,850.397 1063.36,837.436 1063.739,818.631 1064.809,786.674 1062.309,779.733 1062.309,774.827 1059.571,762.295 
	1055.336,750.749 1053.747,745.225 1052.262,742.612 1052.102,740.143 1051.622,738.834 1044.387,723.971 1023.551,697.229 
	1024.254,696.213 1022.52,694.807 1021.489,693.819 1021.176,694.155 1018.418,692.905 1010.141,688.362 1002.911,684.397 
	1001.672,680.635 999.606,674.241 996.926,665.584 994.657,660.573 989.805,653.92 960.204,630.784 961.758,628.854 956.7,624.792 
	953.442,622.174 945.602,622.897 942.618,591.963 946.426,591.491 945.946,587.303 942.231,587.483 939.379,556.881 
	943.219,556.592 942.778,552.073 938.993,552.28 937.375,534.21 935.61,515.077 939.106,514.741 938.68,510.706 935.258,511.006 
	931.911,476.96 935.446,476.553 934.688,465.835 927.309,466.432 921.508,446.206 931.098,441.131 927.133,433.292 928.372,432.737 
	932.165,440.495 934.891,439.088 930.372,430.311 931.739,429.756 936.083,438.577 937.02,438.194 942.583,448.159 943.223,448.448 
	944.125,448.088 944.938,447.378 945,446.753 935.075,428.206 934.606,426.987 933.036,425.624 931.188,424.991 929.379,424.971 
	928.715,424.503 927.18,423.003 926.977,421.409 940.52,418.03 968.969,410.936 968.895,404.194 949.54,405.534 948.805,397.921 
	968.528,396.581 967.606,385.381 951.067,387.131 951.063,387.131 942.165,388.073 941.364,387.131 941.363,387.131 
	936.637,381.577 964.469,378.444 964.469,375.756 953.782,368.366 922.446,371.28 913.782,365.237 913.778,364.374 940.508,361.655 
	940.508,359.19 927.055,350.237 895.211,352.76 886.661,346.464 886.692,345.596 913.598,342.628 913.415,340.159 889.817,324.495 
	857.75,326.729 849.551,320.631 849.129,319.866 875.95,317.214 875.715,314.307 863.094,305.245 861.067,294.499 858.852,292.928 
	815.266,296.799 814.942,299.104 813.309,300.245 811.165,303.924 853.692,333.225 850.438,337.78 840.559,338.647 812.536,319.12 
	803.301,312.569 799.321,304.714 795.094,295.799 794.11,295.464 792.633,294.721 792.239,294.092 792.258,293.124 791.981,292.381 
	786.684,283.585 785.348,281.846 782.458,280.362 781.786,280.249 781.063,280.428 780.391,281.018 778.715,283.424 
	768.547,295.897 767.825,295.311 767.7,294.835 768.446,293.846 776.247,283.51 776.856,282.999 777.25,282.948 777.969,282.592 
	778.844,281.913 779.122,281.335 779.305,278.499 779.954,277.143 780.493,275.401 781.266,273.608 781.469,271.944 
	781.247,270.565 780.583,269.311 778.954,268.284 774.79,267.006 771.766,263.678 767.391,262.362 764.665,261.542 761.7,261.085 
	758.797,261.448 755.93,262.393 753.918,263.237 751.766,263.846 750.051,263.432 749.262,262.46 748.648,261.617 750.024,260.776 
	750.348,261.292 751.903,260.288 751.583,259.788 768.024,249.444 768.09,249.588 769.083,248.96 768.954,248.764 773.391,245.983 
	773.598,246.288 774.333,245.823 773.723,244.866 772.985,245.327 773.161,245.624 769.133,248.206 768.735,248.417 
	768.618,248.229 767.68,248.881 767.778,249.061 751.399,259.397 751.051,258.885 749.27,260.046 749.766,260.436 748.429,261.316 
	748.055,260.803 746.829,258.342 744.708,256.725 742.727,255.464 740.309,253.198 735.614,247.862 735.625,245.967 
	731.653,240.506 727.891,237.221 721.981,233.495 717.618,229.018 718.098,228.35 717.223,226.698 720.891,222.948 720.692,222.772 
	721.188,221.885 721.168,220.881 720.555,220.077 719.637,219.608 718.641,219.678 717.895,220.319 717.622,220.12 713.899,223.838 
	713.395,223.944 712.801,224.514 707.977,220.421 704.032,217.467 696.09,212.51 690.559,209.714 684.418,207.483 675.036,204.499 
	657.063,199.206 657.348,198.233 654.68,197.444 654.395,198.389 651.258,197.464 646.305,195.612 646.504,195.061 646.079,194.893 
	645.86,195.424 640.735,193.292 640.422,193.253 638.61,192.35 636.504,191.217 636.481,190.588 641.684,178.276 641.93,177.51 
	641.461,177.315 641.153,177.327 640.821,177.506 640.508,177.964 640.071,177.983 637.196,177.131 632.762,176.838 
	629.348,175.518 627.18,175.686 625.598,174.792 623.387,175.432 621.165,172.917 618.524,168.741 615.157,166.237 615.231,164.682 
	615.641,164.702 615.641,164.385 615.641,164.065 615.278,164.042 615.715,159.366 615.028,154.549 613.836,151.053 
	611.708,147.428 608.805,144.319 605.34,141.721 599.774,138.139 594.446,135.796 594.829,131.323 593.079,126.077 589.586,122.838 
	585.11,120.194 580.59,118.401 576.887,118.788 573.52,120.276 571.262,120.37 568.102,118.319 567.422,121.604 565.508,121.385 
	565.379,114.358 563.59,110.776 561.563,107.233 561.371,106.897 555.477,100.807 552.637,98.799 549.309,97.819 542.321,95.983 
	538.567,95.479 534.649,97.092 530.985,99.096 529.11,101.827 528.254,103.913 527.25,103.581 526.598,103.362 524.59,100.588 
	522.887,97.221 525.91,94.538 524.762,92.96 520.032,96.667 520.969,104.256 514.36,109.585 509.118,117.889 500.629,113.694 
	498.766,111.971 494.707,103.893 504.758,93.991 517.688,92.96 520.2,90.62 519.434,85.846 517.43,79.702 515.766,74.381 
	512.43,69.268 511.207,69.135 510.313,70.112 510.528,72.631 500.496,89.975 497.582,90.374 495.52,90.62 494.289,87.721 
	495.016,85.756 494.672,83.671 493.055,81.409 492.797,79.022 496.27,74.78 498.055,74.928 500.551,73.315 502.93,72.995 
	504.016,69.319 503.938,60.229 494.957,46.678 487.2,39.464 482.84,38.143 478.305,38.674 475.137,40.753 472.371,43.866 
	468.61,40.428 465.52,39.858 463.129,39.983 460.489,41.217 458.442,43.737 456.953,43.647 457.207,41.772 456.481,40.159 
	455.16,39.428 450.602,36.022 448.129,33.721 442.848,27.585 438.625,21.788 436.922,20.378 434.746,19.358 433.297,18.889 
	431.809,18.335 431.168,15.393 429.082,9.979 427.246,7.659 427.375,3.186 427.965,-0.974 -0.902,-0.974 -0.902,1174.026 
	1153.098,1174.026 "/>
<g>
	<path fill="#FEFEE9" d="M1089.988,641.136l0.511,3.1l-8.811,8.23l-6,2.17l-6.38,0.779l-0.64-3.569l-4.34-2.48l-9.19-9.31
		l-10.59,0.62l0.76,1.859l13.66,13.34l-7.15,3.42l-8.68-7.77l-4.08,3.73l-7.79-8.061l-8.68,7.13l4.72,16.29l7.92,1.71l-13.27,5.891
		l-6.13-2.48l-2.98-2.01l-5.83-15.94l-4.87-0.6l-7.16-8.12l-0.37,0.3l-4.199-3.29l0.25-0.54l-16.96-12.96l-9.261-7.069l-1.76,2.199
		l-4.2-3.13l29.11-37.55l2.33,10c0,0,10.67,1.33,12.34,1.33c1.66,0,7.36-1.21,7.36-1.21v0.93l6.819,2.47l4.431-0.229l4.6-4.48
		l4.59-0.1l3.28,0.81l2.56-1.39l4.341-0.29l3.479,1.19l-0.729,2.76l-0.24,0.91l-0.09,0.34l-3.86,1.32l-4.11-3.38l-2.21,1.189
		l-1.81,2.69l0.02,3.62l0.86,2.649l1.15,2.01l1.25,2.021l0.18,3.14l0.729,1.11l0.86,1.649l0.07,1.271l3.14,2.46l3.5-0.89l2.55-1.2
		l-1.47-1.82l-1.47,0.53l-1.74-0.15l-1.84-1.29l-0.93-2.08l0.13-1.87l0.92-1.619l2.25-1.29l2.56,0.229l2.15,2.03l0.25,3.13
		l-0.88,1.58l1.739,1.82l0.82-2.141l0.51-3.41l-1.68-3.569l-1.28-4.101l0.641-6.18l3.22-4.46l10.08-2.01l5.74,0.93l1.409-0.78
		l7.66,1.09l2.551,4.5l1.399,3.101l0.51,6.21l1.66,2.78l1.15,3.58l-2.681,2.939l-7.27-0.46l-5.75-0.16l-5.74-0.149l-3.319-1.4
		l-3.32,0.46l-2.42,2.33l3.819,4.35l2.561-1.869l6.12,0.159l3.45,2.17l7.279,6.98l8.17,2.02l0.631,1.08L1089.988,641.136z"/>
	<polygon fill="#FEFEE9" points="1010.138,688.366 1003.718,696.856 996.478,705.676 989.318,709.806 980.098,719.946 
		978.338,722.226 977.688,723.906 977.518,725.906 977.678,729.406 978.418,732.966 979.488,736.106 983.688,748.166 
		983.829,750.946 983.508,752.276 982.298,753.446 980.448,754.545 975.758,756.795 972.448,758.716 969.848,760.866 
		966.928,763.816 958.588,772.756 957.448,773.606 956.058,774.286 953.958,774.906 950.688,775.176 948.408,775.646 
		946.528,776.386 929.888,786.816 924.928,758.026 918.598,701.026 914.268,659.356 927.928,644.696 928.598,632.696 
		951.598,631.696 957.698,625.596 961.758,628.856 960.208,630.786 989.808,653.916 994.658,660.576 996.928,665.585 
		999.608,674.236 1001.668,680.636 1002.908,684.396 	"/>
</g>
<path fill="#FEFEE9" d="M968.898,404.196l0.07,6.74l-28.45,7.09l-13.54,3.38l0.2,1.6l1.54,1.5l0.66,0.46l1.81,0.02l1.851,0.64
	l1.569,1.36l0.471,1.22l9.92,18.55l-0.061,0.62l-0.81,0.71l-0.91,0.36l-0.64-0.29l-5.561-9.96l-0.939,0.38l-4.341-8.82l-1.37,0.56
	l4.521,8.77l-2.72,1.41l-3.801-7.76l-1.229,0.56l3.96,7.83l-9.59,5.08l5.8,20.23l7.38-0.6l0.12,1.69l-13.54,0.83l-86.67,5.67
	l-2.67-38l-3-8.33l21-25c0,0-7.58-14.92-9.83-17.17s-8.5-10-13-14s-15.75-10-15.75-10l8.75-14.25l29-1.5l17,12l19.75-0.75l5.38,3.44
	l3.98-7.71l31.85-2.52l13.45,8.95v2.47l-26.73,2.72v0.86l8.67,6.04l31.33-2.91l10.69,7.39v2.69l-27.83,3.13l4.72,5.55h0.01
	l0.801,0.95l8.89-0.95h0.01l16.54-1.75l0.92,11.21l-19.72,1.34l0.73,7.61L968.898,404.196z"/>
<g>
	<path fill="#FEFEE9" d="M1065.298,563.366l1.359,10.88l-0.63,3.9l-1.84,2.23l-2.21,2.24l-3.52,0.74l-2.13-0.53l-2.641,0.24
		l-10.7,3.36l-12.159-1.56l-8.671-1.12l-5.71,7.16l-6.819,4.26v1.4v0.58c0,0-5.7,1.21-7.36,1.21c-1.67,0-12.34-1.33-12.34-1.33
		l-2.33-10l-29.11,37.55l-1.01-0.75l-3.36-2.5l-2.909-30.21l-3.561,0.3l-0.5-4.25v-0.04l3.57-0.37l-2.95-30.68l-3.58,0.17
		l-0.34-4.26l3.63-0.47l-3.5-37.25l-3.67,0.33l-0.38-3.95l3.81-0.31l-3.25-34.36l-3.699,0.42l-0.75-8.95l15.06-0.92l-0.75-2.75
		l16.5-8.25l7.85-3.83l7.25,1.25l2.67,1.17l1.061-0.21l3.47,1.75l2.771,2.35l4.26,2.13l5.16,4.47l0.55,2.68l7.92,8.74l4.06,2.23
		l2.03,3.59l3.87,3.14l2.03,2.46l3.13,1.56l0.92,2.69l3.5,1.79l1.11,2.47l0.779,0.57l2.351,13.31l0.92,2.01l1.85,11.43l7.37,5.37
		l1.73,0.85l13.159,12.04l0.421,1.33l2.569,3.25L1065.298,563.366z"/>
	<polygon fill="#FEFEE9" points="957.698,625.596 951.598,631.696 937.928,618.696 933.598,574.026 929.579,520.956 
		926.928,486.026 921.268,468.356 934.808,467.526 935.448,476.556 931.908,476.956 935.258,511.006 938.678,510.706 
		939.108,514.726 939.108,514.736 935.608,515.076 937.378,534.206 938.988,552.276 942.778,552.076 943.198,556.346 
		943.218,556.596 939.378,556.876 942.228,587.486 945.948,587.306 946.428,591.486 942.618,591.966 945.598,622.896 
		953.438,622.176 956.698,624.795 	"/>
</g>
<path fill="#FEFEE9" d="M951.598,631.696l-23,1l-0.67,12l-13.66,14.66l-1.34-17.66l-19.33,0.33c0,0-1.11,0.87-2.88,2.24l-6.45-12.57
	l-1.34-13.67l-1.11-32.68l-0.22-6.65l52-4.67l4.33,44.67L951.598,631.696z"/>
<polygon fill="#FEFEE9" points="929.579,520.956 933.598,574.026 881.598,578.696 881.818,585.346 881.598,585.356 810.478,589.926 
	809.368,534.966 912.268,526.026 918.598,519.026 922.268,518.696 925.268,521.356 "/>
<path fill="#FEFEE9" d="M924.928,758.026l4.96,28.79l-5.55,3.479l-1.931,1.851l-1.279,2.62l-0.261,4.31l-0.18,4.431l-0.34,1.75
	l-0.84,1.369l-5.67,4.08l-6.101,4.04l-3.949,4.53l-6.24,7.11l-1.351,0.6l-1.609,0.4l-2.66,0.14l-8.87-0.84l-10.51,2.75l-2.83,0.439
	l-1.86,0.271l-7.85,0.36l-9.53-0.08l-2.93,0.3l-3,0.689l-3.38,1.25l-3.471,3.15l-4.3,5.37l-2.27,3.29l-2.561,2.67l-1.08,0.62
	l-1.84,0.63l-3.58,0.86l-2.17,0.26l-2.439,0.89l-2.591,1.62l-4.52,5.23l-5.49,2.06l-8.83-0.4l-5.75-1.84l-5.31,0.13l-2.57,0.061
	l-1.91-0.5l-1.59-1.04l-0.689-1.37l-0.341-1.25l-0.01-1.74l0.5-1.64l1.01-0.99l5.66-2.68l1.681-1.271l0.83-1.899l0.14-1.011
	l-0.311-1.1l-1.539-1.76l-2.08-1.94l-2.601-1.319l-2.09-1.051l-2.27-0.54l-1.71,0.061l-1.16,0.35l-1.36,1.061l-0.61,1.79l0.28,2.52
	l0.65,3.88l0.3,2.04l-0.3,1.98l-0.681,1.56l-1.359,0.89l-2.221-0.06l-1.75-0.86l-2.21-1.89l-0.739-0.57l-17.99-65.22l9.67-16
	l11-1.34l0.67-6l45-22l-0.67-8l7.67-4.33l-2.34-37c0,0,28.34-8.67,32.34-11c2.44-1.42,8.47-5.7,12.96-9.04l-0.3,12.04l6.67-1.67
	l7.67-11.66l-0.25-9.9c5.061-4.01,11.18-8.789,14.7-11.529c1.77-1.37,2.88-2.24,2.88-2.24l19.33-0.33l1.34,17.66l4.33,41.67
	L924.928,758.026z"/>
<path fill="#FEFEE9" d="M926.928,486.026l2.65,34.93l-4.311,0.4l-3-2.66l-3.67,0.33l-6.33,7l-102.9,8.94l-2.22-39.53l-2.17-19.63
	v-0.01c14.65-0.86,29.62-1.77,29.62-1.77l86.67-5.67L926.928,486.026z"/>
<path fill="#FEFEE9" d="M913.418,340.156l0.18,2.47l-26.91,2.97l-0.03,0.87l8.551,6.29l-3.98,7.71l-5.38-3.44l-19.75,0.75l-17-12
	l-29,1.5l-8.75,14.25c0,0,11.25,6,15.75,10s10.75,11.75,13,14s9.83,17.17,9.83,17.17l-21,25l3,8.33l2.67,38
	c0,0-14.97,0.91-29.62,1.77c-13.43,0.8-26.59,1.56-27.71,1.56c-2.34,0-18-2.33-18-2.33l-12.67-8.67l-36.33-0.33l-20.05-0.82v-0.01
	l6.05-19.5l26.33-40l16.67-27.67l21-1.33l7,7.33l19.33-36.67c0,0-9.33-8.66-14.33-11.33s-10.34-6.67-11-8.33
	c-0.67-1.67-4.34-7-4.34-7l14.67-16.67l2.33-8.33l25,17.33l3.67-1.84l0.7,1.38l9.24,6.55l28.02,19.53l9.88-0.87l3.25-4.55
	l-42.52-29.3l2.14-3.68l1.63-1.14l0.33-2.31l43.58-3.87l2.22,1.57l2.03,10.75l12.62,9.06l0.229,2.91l-26.819,2.65l0.42,0.76l8.2,6.1
	l32.069-2.23L913.418,340.156z"/>
<path fill="#FEFEE9" d="M884.268,631.696l6.45,12.57c-3.521,2.74-9.64,7.52-14.7,11.529l0.25,9.9l-7.67,11.66l-6.67,1.67l0.3-12.04
	c-4.49,3.34-10.52,7.62-12.96,9.04c-4,2.33-32.34,11-32.34,11l-4-42.67l-2.45-54.35v-0.08l71.12-4.57l0.22-0.01l1.11,32.68
	L884.268,631.696z"/>
<polygon fill="#FEFEE9" points="816.928,687.026 819.268,724.026 811.598,728.356 812.268,736.356 767.268,758.356 766.598,764.356 
	755.598,765.696 709.928,775.866 702.598,744.026 712.598,711.356 717.268,694.696 712.268,680.696 710.928,663.356 
	729.268,657.696 784.598,650.356 812.928,644.356 "/>
<polygon fill="#FEFEE9" points="810.478,590.006 812.928,644.356 784.598,650.356 729.268,657.696 710.928,663.356 706.928,603.696 
	751.928,593.696 810.478,589.926 "/>
<path fill="#FEFEE9" d="M809.368,534.966l1.11,54.96l-58.55,3.77l-45,10l-2-39.67c0,0-1.66-7.33-2.33-9s-5.33-12-5.33-12l-1-14.33
	l3.33-4.34l10.67-58.33l36.33,0.33l12.67,8.67c0,0,15.66,2.33,18,2.33c1.12,0,14.28-0.76,27.71-1.56v0.01l2.17,19.63
	L809.368,534.966z"/>
<path fill="#FEFEE9" d="M799.318,304.716l3.28,6.47l-3.67,1.84l-25-17.33l-2.33,8.33l-14.67,16.67c0,0,3.67,5.33,4.34,7
	c0.66,1.66,6,5.66,11,8.33s14.33,11.33,14.33,11.33l-19.33,36.67l-7-7.33l-21,1.33l-16.67,27.67l-26.33,40l-6.05,19.5v0.01
	l-36.62-1.51c0,0-11-5.34-14.67-6.67c-3.66-1.33-18-13.67-18-13.67l-42.35-34.3l-31.311-25.36l1.66-8.34c0,0,22.71-27.18,22.53-27.9
	c-0.18-0.72-20.41-18.97-20.41-18.97l16.8-20.22l-21.31-13.91l-20.41-12.1c0,0,7.4-8.85,13.54-12.65
	c6.14-3.79,16.44-11.37,18.06-13.18c1.63-1.81,7.23-9.39,7.23-9.39s9.93,2.17,14.45,2.35c4.511,0.18,11.921,0.18,11.921,0.18
	l0.18-4.16c0,0-16.98,0.36-22.58-7.94c-5.6-8.31-7.04-17.88,2.71-22.22c9.75-4.33,13.91-7.04,15.53-8.31
	c1.63-1.26,13.55-9.39,13.55-9.39l-4.7-3.25c0,0,15.71-11.92,16.62-12.46c0.9-0.54,5.42-3.07,10.65,0
	c5.239,3.07,13.189,8.75,13.189,8.75l0.03,0.63l2.1,1.13l1.811,0.91l0.319,0.04l5.12,2.13l0.221-0.53l0.43,0.17l-0.2,0.55l4.95,1.85
	l3.14,0.92l0.28-0.94l2.67,0.79l-0.29,0.97l17.98,5.29l9.38,2.99l6.14,2.23l5.53,2.79l7.939,4.96l3.95,2.96l4.82,4.09l0.6-0.57
	l0.5-0.11l3.72-3.72l0.28,0.2l0.74-0.64l1-0.07l0.92,0.47l0.61,0.8l0.02,1.01l-0.5,0.89l0.2,0.17l-3.67,3.75l0.88,1.65l-0.48,0.67
	l4.36,4.48l5.91,3.72l3.76,3.29l3.98,5.46l-0.011,1.9l4.69,5.33l2.42,2.27l1.98,1.26l2.12,1.62l1.229,2.46l0.37,0.51l1.34-0.88
	l-0.5-0.39l1.78-1.16l0.35,0.51l16.38-10.33l-0.1-0.19l0.939-0.65l0.12,0.19l0.4-0.21l4.02-2.58l-0.17-0.3l0.73-0.46l0.61,0.96
	l-0.73,0.46l-0.21-0.3l-4.43,2.78l0.12,0.19l-0.99,0.63l-0.061-0.14l-16.449,10.34l0.319,0.5l-1.55,1.01l-0.32-0.52l-1.38,0.84
	l0.61,0.84l0.79,0.98l1.72,0.41l2.15-0.61l2.01-0.84l2.87-0.95l2.899-0.36l2.971,0.46l2.72,0.82l4.38,1.31l3.021,3.33l4.17,1.28
	l1.62,1.03l0.67,1.25l0.22,1.38l-0.2,1.66l-0.78,1.8l-0.529,1.74l-0.65,1.35l-0.19,2.84l-0.27,0.58l-0.88,0.68l-0.72,0.35
	l-0.391,0.05l-0.609,0.51l-7.801,10.34l-0.75,0.99l0.131,0.48l0.72,0.58l10.17-12.47l1.67-2.41l0.67-0.59l0.73-0.18l0.67,0.12
	l2.89,1.48l1.34,1.74l5.29,8.79l0.28,0.75l-0.021,0.97l0.4,0.62l1.47,0.75l0.99,0.33L799.318,304.716z"/>
<polygon fill="#FEFEE9" points="745.928,781.696 763.918,846.916 761.518,845.085 757.468,842.996 755.499,842.446 752.928,842.146 
	748.598,842.295 745.438,842.726 742.338,843.676 737.438,844.956 735.388,845.326 733.298,845.426 730.658,845.056 
	724.688,843.776 721.408,841.856 718.258,840.356 714.888,838.606 710.749,837.146 704.848,836.266 700.338,836.476 
	696.348,837.295 693.768,838.066 689.488,839.776 685.358,840.996 680.838,842.986 662.028,850.146 657.738,852.486 
	650.708,857.236 649.438,858.246 632.598,832.696 597.688,802.456 617.268,782.696 595.928,761.696 609.598,754.356 
	609.268,733.356 652.648,724.125 652.648,724.116 712.598,711.356 702.598,744.026 709.928,775.866 755.598,765.696 "/>
<polygon fill="#FEFEE9" points="712.268,680.696 717.268,694.696 712.598,711.356 652.648,724.116 636.478,642.466 631.238,612.816 
	706.928,603.696 710.928,663.356 "/>
<path fill="#FEFEE9" d="M710.268,466.026l-10.67,58.33l-3.33,4.34l1,14.33c0,0,4.66,10.33,5.33,12s2.33,9,2.33,9l2,39.67
	l-75.69,9.12l-6.96-39.43l-3.319-4.06l-4.061-55.42l-13.54-18.85v-0.01c2.69-1.63,4.91-3.02,5.78-3.67
	c2.95-2.22,9.97-13.67,11.45-15.89c1.479-2.21,14.04-9.23,14.04-9.23l18.97-2.56l36.62,1.51L710.268,466.026z"/>
<path fill="#FEFEE9" d="M653.598,463.696l-18.97,2.56c0,0-12.561,7.02-14.04,9.23c-1.48,2.22-8.5,13.67-11.45,15.89
	c-0.87,0.65-3.09,2.04-5.78,3.67v0.01c-6.45,3.91-15.649,9.25-15.649,9.25s-18.84,11.08-21.791,11.82
	c-2.96,0.74-25.86,8.5-25.86,8.5l-60.66-18.24l10.82-43.2l4.38,1.51l24-21l19.67-10.67l40.311-23.97l42.35,34.3
	c0,0,14.34,12.34,18,13.67C642.598,458.356,653.598,463.696,653.598,463.696z"/>
<polygon fill="#FEFEE9" points="636.478,642.466 652.648,724.116 652.648,724.125 609.268,733.356 609.598,754.356 595.928,761.696 
	583.598,766.356 555.598,733.696 549.928,740.026 514.268,707.696 498.928,671.026 514.198,665.375 573.668,653.916 "/>
<path fill="#FEFEE9" d="M632.598,832.696l16.84,25.55l-2.479,1.98l-4.74,4.069l-6.2,6.73l-4.08,5.58l-3.28,4.81l-4.52,6.63
	l-3.57,4.891l-4.7,7.07l-5.949,9.439l-8.65,12.28l-2.13,3.359l-4.99,7.25l-4.51,6.391l-0.46,0.689l-6.03,9.24l-8.3,11.811
	l-4.54,6.579l-0.52,2.771l-1.7,3.26l-2.86,2.2l-4.66,5.13l-10.84,15.82l-29.13-26.53l-3.67,3.66l-3.19-2.23l3.86-4.43l-37.67-37.34
	l-4.66-0.33l-2-2l-0.67-3.67l-14-14.66c0,0-1.67-4.67-3.33-6.34c-1.67-1.66-6.67-2.66-6.67-2.66l-30.67-28.67c0,0,3.34-4,5.34-3.33
	c2,0.66,5,1,5,1l22.76-23.79l18.96-19.81l17.61-18.4l10-10.67l1.67-7c0,0,25.66,1.67,29.66,1.67s21.67-1,21.67-1l30.67,29.33
	l16.42-16.57L632.598,832.696z"/>
<path fill="#FEFEE9" d="M641.928,177.506l-0.24,0.77l-5.21,12.31c0,0-7.95-5.68-13.189-8.75c-5.23-3.07-9.75-0.54-10.65,0
	c-0.91,0.54-16.62,12.46-16.62,12.46l4.7,3.25c0,0-11.92,8.13-13.55,9.39c-1.62,1.27-5.78,3.98-15.53,8.31
	c-9.75,4.34-8.31,13.91-2.71,22.22c5.6,8.3,22.58,7.94,22.58,7.94l-0.18,4.16c0,0-7.41,0-11.921-0.18
	c-4.52-0.18-14.45-2.35-14.45-2.35s-5.6,7.58-7.23,9.39c-1.62,1.81-11.92,9.39-18.06,13.18c-6.14,3.8-13.54,12.65-13.54,12.65
	l-16.41-10.2l-24.96,17.3l-30.83,36.67l-19-15.33l-3.45,2.44l-26.55-40.11l35.34-25.33l-7.67-3.67l4.33-2l-10.05-14.73l79.77-50.77
	l-5.66-8.24l23.44-38.13c0,0-10.82-7.21-15.46-8.76c-4.63-1.54-18.29-8.5-21.12-11.33c-2.83-2.84-14.68-11.6-14.68-11.6l21.85-12.71
	l-0.73,1.96l1.23,2.9l2.06-0.24l2.92-0.4l10.03-17.35l-0.22-2.51l0.9-0.98l1.22,0.13l3.34,5.11l1.66,5.33l2.01,6.14l0.76,4.77
	l-2.51,2.34l-12.93,1.03l-10.05,9.91l4.06,8.07l1.86,1.73l8.49,4.19l5.24-8.3l6.61-5.33l-0.94-7.59l4.73-3.71l1.15,1.58l-3.02,2.68
	l1.7,3.37l2.01,2.78l0.65,0.22l1.01,0.33l0.85-2.09l1.88-2.73l3.66-2l3.92-1.62l3.75,0.51l6.99,1.83l3.33,0.98l2.84,2.01l5.89,6.09
	l0.19,0.34l2.03,3.54l1.79,3.58l0.13,7.03l1.91,0.22l0.68-3.29l3.16,2.05l2.26-0.09l3.37-1.49l3.7-0.38l4.52,1.79l4.48,2.64
	l3.49,3.24l1.75,5.25l-0.381,4.47l5.33,2.34l5.561,3.58l3.47,2.6l2.9,3.11l2.13,3.63l1.189,3.49l0.69,4.82l-0.44,4.68l0.36,0.02
	v0.32v0.32l-0.41-0.02l-0.07,1.55l3.37,2.5l2.641,4.18l2.22,2.52l2.21-0.64l1.58,0.89l2.17-0.17l3.41,1.32l4.439,0.29l2.87,0.86
	l0.44-0.02l0.31-0.46l0.33-0.18l0.311-0.01L641.928,177.506z"/>
<path fill="#FEFEE9" d="M631.238,612.816l5.24,29.65l-62.81,11.449l-59.47,11.46l-40.06-102.129l-15.73-40.1l20.99-16.76
	l60.66,18.24c0,0,22.9-7.76,25.86-8.5c2.95-0.74,21.791-11.82,21.791-11.82s9.199-5.34,15.649-9.25l13.54,18.85l4.061,55.42
	l3.319,4.06L631.238,612.816z"/>
<path fill="#FEFEE9" d="M617.268,782.696l-19.58,19.76l-16.42,16.57l-30.67-29.33c0,0-17.67,1-21.67,1s-29.66-1.67-29.66-1.67
	l-1.67,7l-10,10.67l-17.61,18.4l-32.64-34.49l18.85-31.4l-31.04-29.18l-10.28-28.19l-32.32-88.609l30.83-18.78l12.14-7.39
	l11.46-6.28l37.15-17.53l40.06,102.129l-15.27,5.65l15.34,36.67l35.66,32.33l5.67-6.33l28,32.66l12.33-4.66L617.268,782.696z"/>
<path fill="#FEFEE9" d="M571.458,347.456c0.18,0.72-22.53,27.9-22.53,27.9s-22-10.66-24.66-12c-2.67-1.33-30.67-13.33-36-15
	c-5.34-1.66-19-4.66-19-4.66l-15.34-17.67l30.83-36.67l24.96-17.3l16.41,10.2l20.41,12.1l21.31,13.91l-16.8,20.22
	C551.048,328.486,571.278,346.736,571.458,347.456z"/>
<polygon fill="#FEFEE9" points="549.728,996.226 534.958,1017.786 515.258,1046.256 513.768,1048.486 503.968,1063.136 
	480.608,1095.826 467.478,1113.136 462.808,1119.166 457.218,1115.136 452.838,1111.835 450.038,1106.045 443.148,1098.916 
	434.088,1090.816 425.978,1083.476 411.778,1070.456 404.828,1064.106 399.248,1059.036 392.768,1053.045 382.568,1043.536 
	371.858,1033.406 361.198,1023.406 356.718,1020.306 393.268,980.696 454.598,1039.026 513.738,971.125 516.928,973.356 
	520.598,969.696 "/>
<path fill="#FEFEE9" d="M524.428,130.156l-23.44,38.13l5.66,8.24l-79.77,50.77l-22.54-32.99l-4.74-6.95l31-20l-35.39-59.79
	l2.01-0.99l15.93-6.99l6.05-2.78l9.78-4.97l4.3-3.27l7.47-1.87l1.23-0.5l12.58-12.16l7.81-6.7l1.43-2.1l0.28-5.89l2.03-3.88
	l3.46-5.33l2.76-3.36l0.04-2.91l2.77-3.11l3.17-2.08l4.53-0.53l4.36,1.32l7.76,7.21l8.98,13.55l0.08,9.09l-1.09,3.68l-2.38,0.32
	l-2.49,1.61l-1.79-0.15l-3.47,4.25l0.26,2.38l1.61,2.27l0.35,2.08l-21.85,12.71c0,0,11.85,8.76,14.68,11.6
	c2.83,2.83,16.49,9.79,21.12,11.33C513.608,122.946,524.428,130.156,524.428,130.156z"/>
<path fill="#FEFEE9" d="M513.738,971.125l-59.14,67.9l-61.33-58.33l-36.55,39.61l-2.28-1.57l-14.13-3.75l-2.59-1.81l-4.28-8.301
	l-3.29-7.869l-4.36-6.641l-6.32-6.02l-6.45-3.65l-22.23-19.81l-13.59-12.48l-1.85-1.71l-10.51-10.12l-3.4-3.39
	c0,0,21.49-15.16,25.83-18.49c4.33-3.34,31.66-38.67,33.66-42c2-3.34,9.34-8.67,12.34-9.34c3-0.66,9.66-3.66,9.66-3.66l34.67-28.34
	l31.75,31.229l9.16-25.43l5.92,2.22l9.23-10.72l17.37,16.25l-22.76,23.79c0,0-3-0.34-5-1c-2-0.67-5.34,3.33-5.34,3.33l30.67,28.67
	c0,0,5,1,6.67,2.66c1.66,1.67,3.33,6.34,3.33,6.34l14,14.66l0.67,3.67l2,2l4.66,0.33l37.67,37.34L513.738,971.125z"/>
<path fill="#FEFEE9" d="M490.218,463.186l-10.82,43.2l-52.39-15.75l-25.49,20.32l-20.69-33.62l-2.29-1.18l14.39-48.8
	c0,0,3.67-7,6.67-8.66c3-1.67,17.67-16.34,17.67-16.34l32.33,30.34l-5.67,23.33l29.34,1.33L490.218,463.186z"/>
<polygon fill="#FEFEE9" points="479.398,506.386 458.408,523.146 474.138,563.246 436.988,580.776 425.528,587.056 413.388,594.446 
	370.928,528.356 389.598,521.696 401.518,510.956 427.008,490.636 "/>
<polygon fill="#FEFEE9" points="437.348,790.606 469.988,825.096 451.028,844.906 433.658,828.656 424.428,839.375 418.508,837.156 
	409.348,862.585 377.598,831.356 295.928,752.026 334.038,730.616 379.598,705.026 391.268,716.696 404.598,706.696 
	414.878,701.835 425.158,730.026 456.198,759.206 "/>
<polygon fill="#FEFEE9" points="440.268,247.696 404.928,273.026 398.598,275.356 396.268,272.026 390.928,275.356 376.268,259.696 
	365.598,249.356 354.518,228.986 355.598,228.356 404.338,194.306 426.878,227.296 436.928,242.026 432.598,244.026 "/>
<polygon fill="#FEFEE9" points="404.928,273.026 431.478,313.136 378.598,350.556 328.928,385.696 291.598,348.696 258.268,316.696 
	232.268,297.696 228.748,295.706 230.598,291.696 313.598,241.696 317.598,250.356 354.518,228.986 365.598,249.356 
	376.268,259.696 390.928,275.356 396.268,272.026 398.598,275.356 "/>
<polygon fill="#FEFEE9" points="395.208,107.566 430.598,167.356 399.598,187.356 404.338,194.306 355.598,228.356 354.518,228.986 
	317.598,250.356 313.598,241.696 230.598,291.696 228.748,295.706 223.878,292.956 224.588,291.286 226.428,287.616 
	228.638,283.056 235.338,265.926 241.768,248.976 246.278,236.206 251.338,224.126 257.748,212.566 261.698,198.226 
	262.608,192.176 264.648,186.776 266.958,181.686 269.328,177.086 276.168,173.466 285.278,169.206 295.988,162.176 
	300.388,157.866 303.768,155.866 308.298,154.316 330.648,142.646 337.398,139.566 350.358,132.866 357.898,128.826 
	366.548,124.176 372.698,120.476 383.008,114.046 389.978,110.126 "/>
<path fill="#FEFEE9" d="M409.598,381.106l7.67,21.25c0,0-14.67,14.67-17.67,16.34c-3,1.66-6.67,8.66-6.67,8.66l-44.66-16
	l-19.34-25.66l49.67-35.14l17,7.14L409.598,381.106z"/>
<polygon fill="#FEFEE9" points="382.558,613.226 414.878,701.835 404.598,706.696 391.268,716.696 379.598,705.026 282.928,609.026 
	309.948,580.306 359.408,627.326 "/>
<polygon fill="#FEFEE9" points="370.928,528.356 413.388,594.446 382.558,613.226 359.408,627.326 309.948,580.306 299.558,570.426 
	329.598,539.026 "/>
<path fill="#FEFEE9" d="M380.828,477.336l20.69,33.62l-11.92,10.74l-18.67,6.66l-41.33,10.67l-30.04,31.4c0,0-5.17-5.91-7.02-7.75
	c-1.85-1.85-19.95-28.82-19.95-28.82l-30.32-41.5l44.33-33.66l69.67,6l22.27,11.46L380.828,477.336z"/>
<polygon fill="#FEFEE9" points="392.928,427.356 378.538,476.156 356.268,464.696 286.598,458.696 258.598,445.026 255.868,441.316 
	328.928,385.696 348.268,411.356 "/>
<polygon fill="#FEFEE9" points="379.598,705.026 334.038,730.616 307.598,705.356 307.598,700.696 303.598,701.696 273.928,672.696 
	268.598,674.696 237.388,646.585 255.928,625.026 282.928,609.026 "/>
<path fill="#FEFEE9" d="M377.598,831.356l-34.67,28.34c0,0-6.66,3-9.66,3.66c-3,0.67-10.34,6-12.34,9.34
	c-2,3.33-29.33,38.66-33.66,42c-4.34,3.33-25.83,18.49-25.83,18.49l-1.93-1.92l-1.31-1.34l-18.99-17.15l-11.41-10.52l-19.5-17.98
	l-21.54-19.65l-11.23-10.42l-6.27-5.87l-11.59-10.63l-12.24-11.359l-2.01-1.891l118.85-66.76l24.66-13.34l9,7.67L377.598,831.356z"
	/>
<path fill="#FEFEE9" d="M334.038,730.616l-38.11,21.41l-9-7.67l-24.66,13.34l-38.67-34.67l-2.33-17.33l22.66-4.67c0,0,0.14-2.52-4-4
	c-3.38-1.21-10.81-1.28-13.66-2.33c-1.55-0.57-3.43-1.52-5.52-2.67l10.52-3.33l-39.53-36.43l23.19-25.91l22.46,20.229l31.21,28.11
	l5.33-2l29.67,29l4-1v4.66L334.038,730.616z"/>
<polygon fill="#FEFEE9" points="228.748,295.706 232.268,297.696 258.268,316.696 291.598,348.696 328.928,385.696 255.868,441.316 
	197.648,362.106 202.538,350.266 204.968,342.256 208.168,333.496 213.658,319.456 217.238,310.336 219.538,304.226 
	222.408,296.396 223.878,292.956 "/>
<path fill="#FEFEE9" d="M299.558,570.426l10.39,9.88l-27.02,28.72l-27,16l-18.54,21.56l-22.46-20.229l-23.19,25.91l-26.19-24.13
	l23.55-27.41l20.32-21.06l63.17-45.81c0,0,18.1,26.97,19.95,28.82C294.388,564.516,299.558,570.426,299.558,570.426z"/>
<polygon fill="#FEFEE9" points="286.598,458.696 242.268,492.356 272.588,533.856 209.418,579.666 189.098,600.726 127.368,545.156 
	137.538,517.886 143.848,501.766 145.298,498.196 149.908,486.316 150.888,483.236 153.368,477.486 155.278,471.966 
	157.598,467.686 158.228,465.876 161.698,455.766 164.278,449.536 167.198,441.736 171.198,430.976 176.648,417.726 
	181.658,403.256 183.968,397.476 186.018,392.436 188.098,386.806 190.258,381.436 193.038,374.016 196.028,366.026 
	197.648,362.106 255.868,441.316 258.598,445.026 "/>
<path fill="#FEFEE9" d="M262.268,757.696l-118.85,66.76l-4.44-3.92l-5.88-4.84l-3.75-4.42l-1.07-2.48l-0.43-0.989l-0.8-2.561
	l-0.42-6.42l-0.75-15.229l-1.14-21.58l-0.76-17.87l-0.56-10.93l-0.44-7.62l-0.28-9.32l-1.16-11.83l-0.1-2.46l-0.55-2.3l-2.74-8.87
	l0.47-1.64c0,0,28.98,1.52,40.31-2.48c11.34-4,31.67-9,40.34-6c6.55,2.271,15,7.771,21.48,11.33c2.09,1.15,3.97,2.1,5.52,2.67
	c2.85,1.05,10.28,1.12,13.66,2.33c4.14,1.48,4,4,4,4l-22.66,4.67l2.33,17.33L262.268,757.696z"/>
<path fill="#FEFEE9" d="M191.738,652.266l39.53,36.43l-10.52,3.33c-6.48-3.56-14.93-9.06-21.48-11.33c-8.67-3-29,2-40.34,6
	c-11.33,4-40.31,2.48-40.31,2.48l2.22-7.74l-0.94-16.96l-0.72-17.45l40.09-24.67l6.28,5.78L191.738,652.266z"/>
<polygon fill="#FEFEE9" points="189.098,600.726 165.548,628.136 159.268,622.356 119.178,647.026 118.758,636.996 117.718,617.875 
	116.948,596.136 116.498,589.256 115.678,580.096 115.668,575.926 117.558,571.056 121.518,559.456 126.138,548.446 
	127.368,545.156 "/>
<path fill="#C6ECFF" stroke="#0978AB" stroke-width="1.4173" d="M427.375,3.186l-0.129,4.473l1.836,2.32l2.086,5.414l0.641,2.942
	l1.488,0.554l1.449,0.469l2.176,1.02l1.703,1.41l4.223,5.797l5.281,6.136l2.473,2.301l4.558,3.406l1.321,0.731l0.726,1.613
	l-0.254,1.875l1.489,0.09l2.047-2.52l2.64-1.234l2.391-0.125l3.09,0.57l3.761,3.438l2.766-3.113l3.168-2.079l4.535-0.531l4.36,1.321
	l7.757,7.214l8.981,13.551l0.078,9.09l-1.086,3.676l-2.379,0.32l-2.496,1.613l-1.785-0.148l-3.473,4.242l0.258,2.387l1.617,2.262
	l0.344,2.085l-0.727,1.965l1.231,2.899l2.062-0.246l2.914-0.399l10.032-17.344l-0.215-2.519l0.894-0.977l1.223,0.133l3.336,5.113
	l1.664,5.321l2.004,6.144l0.766,4.774l-2.512,2.34l-12.93,1.031l-10.051,9.902l4.059,8.078l1.863,1.723l8.489,4.195l5.242-8.304
	l6.609-5.329l-0.937-7.589l4.73-3.707l1.148,1.578l-3.023,2.683l1.703,3.367l2.008,2.774l0.652,0.219l1.004,0.332l0.856-2.086
	l1.875-2.731l3.664-2.004l3.918-1.613l3.754,0.504l6.988,1.836l3.328,0.98l2.84,2.008l5.894,6.09l0.192,0.336l2.027,3.543
	l1.789,3.582l0.129,7.027l1.914,0.219l0.68-3.285l3.16,2.051l2.258-0.094l3.367-1.488l3.703-0.387l4.52,1.793l4.477,2.644
	l3.492,3.239l1.75,5.246l-0.383,4.473l5.328,2.343l5.566,3.582l3.465,2.598l2.902,3.109l2.129,3.625l1.191,3.496l0.688,4.817
	l-0.438,4.676l0.363,0.023v0.32v0.317l-0.41-0.02l-0.074,1.555l3.367,2.504l2.641,4.176l2.223,2.515l2.211-0.64l1.582,0.894
	l2.168-0.168l3.414,1.32l4.434,0.293l2.875,0.852l0.438-0.019l0.312-0.458l0.332-0.179l0.309-0.012l0.469,0.195l-0.246,0.766
	l-5.203,12.312l0.023,0.629l2.105,1.133l1.812,0.903l0.312,0.039l5.125,2.132l0.219-0.531l0.426,0.168l-0.199,0.551l4.953,1.852
	l3.137,0.925l0.285-0.945l2.668,0.789l-0.285,0.973l17.973,5.293l9.383,2.984l6.141,2.231l5.531,2.796l7.941,4.957l3.945,2.954
	l4.824,4.093l0.594-0.57l0.504-0.106l3.723-3.718l0.273,0.199l0.746-0.641l0.996-0.07l0.918,0.469l0.613,0.804l0.02,1.004
	l-0.496,0.887l0.199,0.176l-3.668,3.75l0.875,1.652l-0.48,0.668l4.363,4.477l5.91,3.726l3.762,3.285l3.973,5.461l-0.012,1.895
	l4.695,5.336l2.418,2.266l1.98,1.261l2.121,1.617l1.227,2.461l0.374,0.514l1.337-0.88l-0.496-0.39l1.781-1.161l0.348,0.512
	l16.379-10.336l-0.098-0.18l0.938-0.652l0.117,0.188l0.398-0.211l4.027-2.582l-0.176-0.297l0.738-0.461l0.609,0.957l-0.734,0.465
	l-0.207-0.305l-4.438,2.781l0.129,0.196l-0.992,0.628l-0.066-0.144l-16.441,10.344l0.32,0.5l-1.555,1.004l-0.324-0.516l-1.376,0.841
	l0.614,0.843l0.789,0.972l1.715,0.414l2.152-0.609l2.012-0.844l2.867-0.945l2.902-0.363l2.965,0.457l2.727,0.82l4.375,1.316
	l3.023,3.328l4.164,1.278l1.629,1.027l0.664,1.254l0.223,1.379l-0.203,1.664l-0.773,1.793l-0.539,1.742l-0.648,1.356l-0.184,2.836
	l-0.277,0.578l-0.875,0.679l-0.719,0.356l-0.395,0.051l-0.609,0.511l-7.801,10.336l-0.746,0.989l0.125,0.476l0.723,0.586
	l10.168-12.473l1.676-2.406l0.672-0.59l0.723-0.179l0.672,0.113l2.891,1.484l1.336,1.739l5.297,8.796l0.277,0.743l-0.02,0.968
	l0.395,0.629l1.477,0.743l0.984,0.335l4.227,8.915l3.98,7.855l9.234,6.551l28.023,19.527l9.879-0.867l3.254-4.555l-42.527-29.301
	l2.145-3.679l1.633-1.141l0.324-2.305l43.586-3.871l2.215,1.571l2.027,10.746l12.621,9.062l0.234,2.907l-26.82,2.652l0.422,0.765
	l8.199,6.098l32.066-2.234l23.598,15.664l0.184,2.469l-26.906,2.968l-0.031,0.868l8.551,6.296l31.844-2.523l13.453,8.953v2.465
	l-26.73,2.719l0.004,0.863l8.664,6.043l31.336-2.914l10.688,7.39v2.688l-27.832,3.133l4.726,5.554h0.001l0.801,0.942l8.898-0.942
	h0.004l16.539-1.75l0.922,11.2l-19.723,1.34l0.734,7.613l19.355-1.34l0.074,6.742l-28.449,7.094l-13.543,3.379l0.203,1.594
	l1.535,1.5l0.664,0.468l1.809,0.02l1.848,0.633l1.57,1.363l0.469,1.219L945,446.753l-0.062,0.625l-0.812,0.71l-0.902,0.36
	l-0.641-0.289l-5.562-9.965l-0.938,0.383l-4.344-8.821l-1.367,0.555l4.52,8.777l-2.727,1.407l-3.793-7.758l-1.238,0.555l3.965,7.839
	l-9.59,5.075l5.801,20.226l7.379-0.597l0.758,10.718l-3.535,0.407l3.348,34.046l3.422-0.3l0.426,4.035l-3.496,0.336l1.766,19.133
	l1.617,18.07l3.785-0.207l0.441,4.519l-3.84,0.289l2.852,30.602l3.715-0.18l0.48,4.188l-3.809,0.473l2.984,30.934l7.84-0.723
	l3.258,2.617l5.059,4.062l-1.555,1.93l29.602,23.137l4.852,6.652l2.27,5.012l2.68,8.656l2.066,6.395l1.238,3.762l7.23,3.965
	l8.277,4.543l2.758,1.25l0.312-0.336l1.031,0.988l1.734,1.406l-0.703,1.016l20.836,26.742l7.234,14.863l0.48,1.309l0.16,2.469
	l1.484,2.613l1.59,5.523l4.234,11.547l2.738,12.531v4.906l2.5,6.941l-1.07,31.957l-0.379,18.805l-0.258,12.961l0.91-0.078
	l0.164-1.137l0.77-0.734l1.102-0.199l3.598-4.98l2.012-69.57l0.09-2.988l-4.031-10.305l-0.203-0.676l-3.031-10.086l-2.219-4.605
	l-0.59-3.648l-1.242-3.496l-1.664-1.551l-1.93-0.199l-0.469-0.805l4.988-2.66l-5.742-11.535l-5.602-0.598l-15.164-19.992
	l-3.516-4.848l-0.434-6.781l1.035-2.336l1.727-1.312l14.242-4.391l3.074,2.824l6.215,5.707l7.637-2.008l-0.5,6.703l-0.883,11.969
	l-0.473,6.41l6.395,8.031l2.578-2.258l0.836-8.816l0.926-9.801l1.027-10.855l-1.238-4.27l7.879-2.719l4.812-1.668l-0.723,8.656
	l1.301,0.941l5.719-1.824l1.75-2.004l0.121,0.641l0.5,2.746l5.266,3.633l2.363,0.27l1.969-1.168l13.91-20.777h0.477l-12.254,19.34
	l-1.973,2.555l-1.672,0.648l4.23,13.504l2.059,28.762l-3.281,3.242l-5.09,1.438l0.418,10.234l23.297,19.973l-1.855,2.887
	l30.379,29.683V-0.974H427.965L427.375,3.186z M981.95,452.944l2.668,1.168l1.062-0.211l3.465,1.758l2.77,2.344l4.262,2.132
	l5.16,4.469l0.551,2.684l7.926,8.734l4.055,2.238l2.027,3.586l3.871,3.137l2.027,2.461l3.133,1.566l0.926,2.684l3.5,1.793
	l1.105,2.469l0.777,0.566l2.355,13.313l0.918,2.015l1.848,11.422l7.371,5.375l1.727,0.852l13.16,12.039l0.426,1.328l2.566,3.246
	l3.688,17.25l1.363,10.887l-0.625,3.894l-1.844,2.238l-2.215,2.239l-3.52,0.738l-2.129-0.531l-2.641,0.242l-10.691,3.359
	l-12.168-1.566l-8.664-1.117l-5.711,7.16l-6.82,4.262v1.395v0.582v0.93l6.82,2.469l4.426-0.23l4.605-4.477l4.586-0.102l3.277,0.816
	l2.562-1.391l4.34-0.293l3.48,1.191l-0.973,3.672l-0.09,0.332l-3.855,1.324l-4.113-3.383l-2.211,1.195l-1.809,2.684l0.023,3.625
	l0.859,2.652l1.145,2.008l1.254,2.02l0.184,3.141l0.723,1.113l0.867,1.645l0.07,1.273l3.133,2.461l3.508-0.895l2.547-1.199
	l-1.473-1.824l-1.465,0.531l-1.742-0.148l-1.84-1.285l-0.934-2.078l0.133-1.871l0.918-1.621l2.25-1.297l2.566,0.238l2.141,2.027
	l0.254,3.129l-0.875,1.578l1.734,1.824l0.824-2.145l0.512-3.406l-1.684-3.574l-1.281-4.102l0.641-6.18l3.219-4.453l10.078-2.016
	l5.746,0.93l1.406-0.773l7.656,1.086l2.555,4.496l1.402,3.102l0.512,6.211l1.656,2.785l1.152,3.574l-2.68,2.945l-7.273-0.465
	l-5.746-0.16l-5.746-0.148l-3.316-1.402l-3.32,0.465l-2.426,2.332l3.828,4.344l2.555-1.863l6.125,0.156l3.445,2.172l7.277,6.977
	l8.172,2.02l0.637,1.086l7.402,8.219l0.512,3.102l-8.809,8.227l-6,2.172l-6.379,0.773l-0.641-3.566l-4.34-2.48l-9.191-9.312
	l-10.59,0.621l0.762,1.859l13.656,13.344l-7.145,3.414l-8.68-7.762l-4.086,3.727l-7.789-8.062l-8.68,7.133l4.723,16.285l7.918,1.711
	l-13.273,5.895l-6.129-2.48l-2.98-2.012l-5.828-15.941l-4.863-0.594l-7.168-8.121l-0.367,0.297l-4.203-3.285l0.258-0.543
	l-16.969-12.961l-9.254-7.066l-1.766,2.199l-5.211-3.887l-3.352-2.5l-2.91-30.207l-3.562,0.305l-0.5-4.293l3.566-0.368
	l-2.945-30.687l-3.578,0.172l-0.34-4.262l3.621-0.469l-3.496-37.25l-3.664,0.336l-0.387-3.949l3.816-0.32l-3.25-34.356l-3.703,0.422
	l-0.879-10.543l11.969-1.191l-3.211-11.043l2.434-0.512l2.598,8.227l4.504-1.028l10.871-5.808l0.359-3.219l7.512,0.113
	L981.95,452.944z"/>
<path fill="#FEFEE9" d="M547.268,383.696l1.66-8.34c0,0-22-10.66-24.66-12c-2.67-1.33-30.67-13.33-36-15c-5.34-1.66-19-4.66-19-4.66
	l-0.003-0.003l0,0l-0.667,46.583l-7,2l-24.75,28c0,0-0.049,0.117-0.139,0.324l12.889,12.096l-5.67,23.33l29.34,1.33l16.95,5.83
	l4.38,1.51l24-21l19.67-10.67l40.311-23.97L547.268,383.696z"/>
<path fill="#FEFEE9" d="M436.848,420.276l24.75-28l7-2l0.667-46.583l0,0l-15.337-17.667l-19-15.33l-3.45,2.44l-52.88,37.42l17,7.14
	l14,23.41l7.67,21.25l19.441,18.244C436.799,420.393,436.848,420.276,436.848,420.276z"/>
<polyline fill="none" stroke="#646464" stroke-width="4.252" points="710.932,663.36 729.265,657.693 784.598,650.36 
	812.932,644.36 "/>
<polyline fill="none" stroke="#646464" stroke-width="7.0866" points="1010.141,688.362 1003.723,696.854 996.477,705.678 
	989.321,709.807 980.102,719.944 978.336,722.225 977.684,723.905 977.52,725.901 977.676,729.409 978.422,732.963 979.485,736.108 
	983.688,748.17 983.833,750.948 983.504,752.276 982.301,753.444 980.45,754.549 975.762,756.795 972.446,758.717 969.844,760.866 
	966.926,763.815 958.59,772.752 957.45,773.608 956.063,774.284 953.954,774.905 950.688,775.178 948.411,775.643 946.532,776.381 
	924.336,790.292 922.407,792.143 921.129,794.768 920.868,799.073 920.692,803.506 920.344,805.252 919.504,806.624 913.84,810.709 
	907.739,814.749 903.786,819.272 897.551,826.385 896.196,826.991 894.586,827.389 891.93,827.526 883.059,826.69 872.543,829.44 
	869.723,829.877 867.86,830.143 860.008,830.51 850.481,830.424 847.543,830.729 844.543,831.42 841.172,832.663 837.7,835.815 
	833.399,841.182 831.129,844.479 828.571,847.151 827.493,847.764 825.649,848.393 822.071,849.26 819.895,849.514 817.454,850.409 
	814.872,852.026 810.348,857.252 804.86,859.315 796.032,858.92 790.282,857.077 784.969,857.209 782.403,857.264 780.489,856.768 
	778.903,855.725 778.211,854.354 777.868,853.108 777.856,851.37 778.36,849.725 779.372,848.741 785.028,846.053 786.708,844.788 
	787.54,842.885 787.676,841.874 787.364,840.78 785.825,839.018 783.747,837.073 781.145,835.752 779.055,834.706 776.786,834.17 
	775.075,834.221 773.922,834.577 772.559,835.639 771.95,837.428 772.231,839.944 772.879,843.827 773.176,845.87 772.875,847.85 
	772.196,849.401 770.84,850.295 768.614,850.233 766.864,849.374 764.661,847.491 761.516,845.084 757.469,842.999 755.497,842.448 
	752.93,842.143 748.602,842.295 745.434,842.725 742.34,843.674 737.438,844.952 735.391,845.331 733.301,845.428 730.657,845.053 
	724.688,843.776 721.407,841.858 718.258,840.354 714.887,838.608 710.747,837.147 704.844,836.264 700.34,836.471 696.352,837.295 
	693.766,838.061 689.493,839.78 685.356,840.999 680.84,842.987 662.028,850.151 657.739,852.487 650.711,857.241 646.958,860.221 
	642.223,864.295 636.02,871.026 631.938,876.608 628.657,881.413 624.133,888.049 620.567,892.932 615.868,900.006 609.918,909.448 
	601.266,921.721 599.137,925.087 594.149,932.334 589.633,938.725 589.18,939.417 583.153,948.655 574.844,960.464 570.305,967.049 
	569.786,969.819 568.09,973.073 565.227,975.276 560.567,980.409 534.957,1017.784 515.262,1046.256 513.77,1048.487 
	503.965,1063.135 480.61,1095.823 467.473,1113.131 462.805,1119.167 457.219,1115.131 452.836,1111.834 450.036,1106.049 
	443.149,1098.92 434.09,1090.819 425.977,1083.479 411.778,1070.452 404.828,1064.104 399.243,1059.034 392.766,1053.049 
	382.567,1043.538 371.856,1033.405 361.203,1023.409 354.434,1018.741 340.309,1014.987 337.719,1013.174 333.442,1004.877 
	330.149,997.01 325.793,990.366 319.469,984.35 313.02,980.694 290.793,960.885 277.203,948.401 275.344,946.694 264.84,936.577 
	259.508,931.264 258.203,929.928 239.211,912.772 227.797,902.256 208.297,884.276 186.758,864.627 175.528,854.209 
	169.258,848.338 157.668,837.709 145.426,826.346 143.418,824.452 138.973,820.534 133.102,815.698 129.352,811.28 128.278,808.795 
	127.852,807.807 127.047,805.249 126.629,798.831 125.879,783.6 124.739,762.014 123.981,744.143 123.422,733.217 122.981,725.596 
	122.703,716.28 121.543,704.448 121.434,701.983 120.891,699.69 118.145,690.819 120.836,681.432 119.899,664.475 118.758,636.995 
	117.715,617.877 116.95,596.139 116.493,589.26 115.68,580.1 115.668,575.928 117.563,571.053 121.516,559.46 126.137,548.448 
	137.536,517.889 143.848,501.768 145.301,498.194 149.91,486.315 150.883,483.233 153.368,477.491 155.278,471.971 157.594,467.69 
	158.227,465.878 161.703,455.764 164.282,449.538 167.196,441.737 171.2,430.975 176.645,417.729 181.66,403.253 183.965,397.479 
	186.02,392.44 188.102,386.803 190.262,381.44 193.043,374.014 196.028,366.022 202.539,350.268 204.969,342.253 208.168,333.499 
	213.66,319.452 217.239,310.338 219.539,304.225 222.407,296.393 224.586,291.284 226.43,287.612 228.633,283.053 235.336,265.928 
	241.766,248.979 246.278,236.206 251.34,224.124 257.743,212.569 261.7,198.229 262.606,192.171 264.645,186.772 266.961,181.686 
	269.328,177.081 276.164,173.464 285.274,169.206 295.985,162.174 300.383,157.87 303.766,155.862 308.301,154.311 330.649,142.647 
	337.399,139.569 350.356,132.866 357.895,128.823 366.547,124.178 372.7,120.475 383.012,114.042 389.981,110.128 397.223,106.577 
	413.149,99.581 419.196,96.803 428.973,91.838 433.274,88.561 440.746,86.694 441.977,86.198 454.555,74.038 462.371,67.335 
	463.797,65.233 464.075,59.342 466.106,55.467 469.567,50.139 472.328,46.772 472.371,43.862 "/>
<path fill="none" stroke="#646464" stroke-width="4.252" d="M710.265,466.026l-10.667,58.333l-3.333,4.333l1,14.333
	c0,0,4.667,10.333,5.333,12s2.334,9,2.334,9l2,39.667l4,59.667l1.333,17.333l5,14l-4.667,16.667l-103.333,22l0.333,21l-13.667,7.333
	l21.334,21l-36,36.334l-30.667-29.334c0,0-17.667,1-21.667,1s-29.667-1.666-29.667-1.666l-1.667,7l-10,10.666l-36.569,38.212
	l-17.371-16.246l-9.235,10.713l-5.911-2.216l-9.168,25.426l-31.746-31.222l-34.667,28.333c0,0-6.667,3-9.667,3.667
	s-10.333,6-12.333,9.333s-29.333,38.667-33.667,42s-25.827,18.493-25.827,18.493"/>
<polyline fill="none" stroke="#646464" stroke-width="4.252" points="597.686,802.454 632.598,832.693 649.442,858.249 "/>
<path fill="none" stroke="#646464" stroke-width="4.252" d="M197.647,362.104l60.951,82.922l28,13.667l69.667,6l24.565,12.643
	l20.688,33.618l25.491-20.318l113.044,33.987c0,0,22.904-7.758,25.86-8.497s21.796-11.821,21.796-11.821s18.472-10.713,21.427-12.93
	s9.975-13.668,11.452-15.885s14.038-9.236,14.038-9.236l18.972-2.559l56.667,2.333l36.333,0.333l12.667,8.667
	c0,0,15.667,2.333,18,2.333s57.333-3.333,57.333-3.333l-2.666-38l-3-8.333l20.999-25c0,0-7.583-14.917-9.833-17.167s-8.5-10-13-14
	s-15.75-10-15.75-10l8.75-14.25l29-1.5l17,12l19.75-0.75l5.377,3.441l3.986-7.708"/>
<path fill="none" stroke="#646464" stroke-width="4.252" d="M804.973,475.802l2.176,19.635l2.217,39.528l1.107,55.044l2.459,54.351
	l4,42.667c0,0,28.333-8.666,32.333-11c2.44-1.424,8.478-5.7,12.966-9.046l-0.3,12.045l6.667-1.667l7.667-11.666l-0.251-9.896
	c7.598-6.018,17.584-13.771,17.584-13.771l19.334-0.334l1.333,17.667l13.667-14.667l0.666-12l23-1l6.098-6.102l29.902-38.565
	l2.333,10c0,0,10.668,1.333,12.334,1.333s7.364-1.216,7.364-1.216"/>
<polyline fill="none" stroke="#646464" stroke-width="4.252" points="603.36,495.049 616.894,513.908 620.958,569.322 
	624.283,573.386 636.474,642.468 652.653,724.123 "/>
<polyline fill="none" stroke="#646464" stroke-width="4.252" points="636.474,642.468 573.671,653.92 514.194,665.373 
	458.411,523.144 479.397,506.385 "/>
<path fill="none" stroke="#646464" stroke-width="4.252" d="M474.14,563.248l-37.156,17.526l-11.452,6.28l-66.127,40.268
	l-59.847-56.892c0,0-5.173-5.911-7.02-7.758s-19.949-28.815-19.949-28.815l-63.172,45.809l-20.318,21.058l-61.734-55.566"/>
<polyline fill="none" stroke="#646464" stroke-width="4.252" points="382.56,613.221 425.162,730.022 456.194,759.207 
	437.353,790.608 469.985,825.097 "/>
<path fill="none" stroke="#646464" stroke-width="4.252" d="M118.617,689.174c0,0,28.981,1.519,40.315-2.481s31.667-9,40.333-6
	s20.667,11.667,27,14c2.851,1.05,10.279,1.124,13.667,2.333c4.138,1.477,4,4,4,4l-22.667,4.667l2.333,17.333l38.667,34.667
	l24.667-13.334l9,7.667l83.667-47l11.667,11.667l13.333-10l10.282-4.859"/>
<path fill="none" stroke="#646464" stroke-width="4.252" d="M255.871,441.315l73.061-55.623l106-75l19,15.333l15.333,17.667
	c0,0,13.667,3,19,4.667s33.333,13.667,36,15s24.667,12,24.667,12l-1.667,8.333l73.667,59.667c0,0,14.332,12.333,17.999,13.667
	s14.667,6.667,14.667,6.667"/>
<polyline fill="none" stroke="#646464" stroke-width="4.252" points="395.208,107.564 430.598,167.359 399.598,187.359 
	436.932,242.026 432.598,244.026 440.265,247.693 404.932,273.026 431.48,313.135 "/>
<path fill="none" stroke="#646464" stroke-width="4.252" d="M548.932,375.359c0,0,22.707-27.183,22.526-27.906
	s-20.409-18.964-20.409-18.964l16.796-20.229l-21.312-13.907l-20.409-12.101c0,0,7.405-8.85,13.546-12.643
	s16.436-11.378,18.061-13.185s7.224-9.392,7.224-9.392s9.935,2.167,14.449,2.348s11.92,0.181,11.92,0.181l0.181-4.154
	c0,0-16.977,0.361-22.576-7.947s-7.044-17.88,2.709-22.215s13.906-7.043,15.532-8.308s13.546-9.392,13.546-9.392l-4.695-3.251
	c0,0,15.712-11.92,16.615-12.462s5.418-3.07,10.656,0s13.188,8.754,13.188,8.754"/>
<path fill="none" stroke="#646464" stroke-width="4.252" d="M690.216,465.201l6.049-19.508l26.333-40l16.667-27.667l21-1.333
	l7,7.333l19.333-36.667c0,0-9.333-8.667-14.333-11.333s-10.333-6.666-11-8.333s-4.334-7-4.334-7l14.667-16.667l2.333-8.333
	l25,17.333l3.671-1.837"/>
<path fill="none" stroke="#646464" stroke-width="1.7008" d="M426.875,227.3l79.777-50.775l-5.667-8.243l23.442-38.125
	c0,0-10.819-7.213-15.456-8.759s-18.291-8.5-21.124-11.334s-14.684-11.592-14.684-11.592l21.853-12.715"/>
<polyline fill="none" stroke="#646464" stroke-width="1.7008" points="453.932,326.026 484.756,289.356 509.717,272.058 
	526.125,282.253 "/>
<polyline fill="none" stroke="#646464" stroke-width="1.7008" points="404.343,194.307 355.598,228.359 317.598,250.359 
	313.598,241.693 230.598,291.693 228.598,296.026 "/>
<polyline fill="none" stroke="#646464" stroke-width="1.7008" points="223.875,292.953 232.265,297.693 258.265,316.693 
	291.598,348.693 328.932,385.693 348.265,411.359 392.932,427.359 "/>
<polyline fill="none" stroke="#646464" stroke-width="1.7008" points="354.521,228.983 365.598,249.359 376.265,259.693 
	390.932,275.359 396.265,272.026 398.598,275.359 404.932,273.026 "/>
<path fill="none" stroke="#646464" stroke-width="1.7008" d="M378.533,476.152l14.398-48.793c0,0,3.667-7,6.667-8.667
	s17.667-16.333,17.667-16.333"/>
<polyline fill="none" stroke="#646464" stroke-width="1.7008" points="378.597,350.552 395.598,357.693 409.598,381.103 
	417.265,402.359 449.598,432.693 443.932,456.026 473.265,457.359 494.598,464.693 518.598,443.693 538.265,433.026 
	578.576,409.053 "/>
<line fill="none" stroke="#646464" stroke-width="1.7008" x1="490.22" y1="463.188" x2="479.397" y2="506.385"/>
<polyline fill="none" stroke="#646464" stroke-width="1.7008" points="299.557,570.43 329.598,539.026 370.932,528.359 
	389.598,521.692 401.519,510.953 "/>
<line fill="none" stroke="#646464" stroke-width="1.7008" x1="413.391" y1="594.447" x2="370.932" y2="528.359"/>
<polyline fill="none" stroke="#646464" stroke-width="1.7008" points="286.598,458.692 242.265,492.359 272.589,533.857 "/>
<polyline fill="none" stroke="#646464" stroke-width="1.7008" points="119.175,647.03 159.265,622.36 231.265,688.693 
	220.749,692.028 "/>
<line fill="none" stroke="#646464" stroke-width="1.7008" x1="165.542" y1="628.144" x2="189.099" y2="600.723"/>
<polyline fill="none" stroke="#646464" stroke-width="1.7008" points="191.731,652.271 214.932,626.36 268.598,674.693 
	273.932,672.693 303.598,701.693 307.598,700.693 307.598,705.36 334.037,730.621 "/>
<polyline fill="none" stroke="#646464" stroke-width="1.7008" points="237.393,646.588 255.932,625.026 282.932,609.026 
	309.948,580.308 "/>
<line fill="none" stroke="#646464" stroke-width="1.7008" x1="282.932" y1="609.026" x2="379.598" y2="705.026"/>
<polyline fill="none" stroke="#646464" stroke-width="1.7008" points="595.931,761.693 583.598,766.359 555.598,733.693 
	549.932,740.026 514.265,707.693 498.932,671.026 514.194,665.373 "/>
<line fill="none" stroke="#646464" stroke-width="1.7008" x1="295.932" y1="752.026" x2="377.598" y2="831.36"/>
<line fill="none" stroke="#646464" stroke-width="1.7008" x1="143.418" y1="824.452" x2="262.265" y2="757.693"/>
<polyline fill="none" stroke="#646464" stroke-width="1.7008" points="549.731,996.222 520.598,969.692 516.932,973.359 
	513.598,971.026 "/>
<path fill="none" stroke="#646464" stroke-width="1.7008" d="M356.711,1020.311l36.554-39.619l61.333,58.334l63-72.334
	l-37.667-37.333l-4.667-0.333l-2-2l-0.667-3.667l-14-14.667c0,0-1.666-4.666-3.333-6.333s-6.667-2.667-6.667-2.667l-30.667-28.665
	c0,0,3.333-4.001,5.333-3.334s5,1,5,1l22.765-23.788"/>
<polyline fill="none" stroke="#646464" stroke-width="1.7008" points="631.241,612.815 706.932,603.693 751.932,593.693 
	881.598,585.359 "/>
<polyline fill="none" stroke="#646464" stroke-width="1.7008" points="712.598,711.36 702.598,744.026 709.932,775.864 
	755.598,765.693 766.598,764.359 767.265,758.359 812.265,736.359 811.598,728.359 819.265,724.026 816.932,687.027 "/>
<polyline fill="none" stroke="#646464" stroke-width="1.7008" points="763.915,846.919 745.932,781.693 755.598,765.693 "/>
<polyline fill="none" stroke="#646464" stroke-width="1.7008" points="929.884,786.815 924.932,758.026 918.598,701.026 
	914.265,659.36 "/>
<polyline fill="none" stroke="#646464" stroke-width="1.7008" points="890.714,644.27 884.265,631.693 882.931,618.026 
	881.598,578.692 933.598,574.026 "/>
<polyline fill="none" stroke="#646464" stroke-width="1.7008" points="951.598,631.693 937.931,618.693 933.596,574.026 
	926.931,486.026 921.265,468.359 "/>
<polyline fill="none" stroke="#646464" stroke-width="1.7008" points="809.366,534.965 912.265,526.026 918.598,519.026 
	922.265,518.692 925.265,521.359 929.577,520.952 "/>
<polyline fill="none" stroke="#646464" stroke-width="1.7008" points="834.598,474.026 921.265,468.359 951.098,466.526 
	950.348,463.776 966.848,455.526 974.698,451.695 "/>
<polyline fill="none" stroke="#646464" stroke-width="1.7008" points="436.848,420.276 461.598,392.276 468.598,390.276 
	469.265,343.693 "/>
<g>
	<path stroke="#FEFEE9" stroke-width="2.8346" d="M894.175,517.443h-0.149l-9.6,4.35l-2.176-10.125l13.949-6.149h11.025v48.748
		h-13.05V517.443z"/>
</g>
<g>
	<path stroke="#FEFEE9" stroke-width="2.8346" d="M763.551,450.266v-8.175l6.75-5.925c9.898-8.55,14.924-13.649,14.999-18.599
		c0-3.525-2.325-6.075-7.274-6.075c-4.051,0-7.725,2.025-10.426,3.975l-3.674-9.675c3.75-2.774,9.899-5.1,16.799-5.1
		c11.324,0,18.074,6.15,18.074,15.75c0,7.799-5.55,14.099-11.324,18.824l-4.8,3.749v0.15h16.949v11.1H763.551z"/>
</g>
<g>
	<path stroke="#FEFEE9" stroke-width="2.8346" d="M743.726,587.517c2.1,1.05,6.975,2.925,11.624,2.925
		c4.801,0,7.95-1.726,7.95-5.175c0-3.976-4.125-5.851-8.55-5.851h-5.1v-9.6h4.799c3.375,0,7.65-1.05,7.65-4.425
		c0-2.475-2.324-4.124-6.525-4.124c-4.124,0-8.475,1.725-10.424,2.774l-2.55-9.675c3.075-1.875,9.3-3.675,16.05-3.675
		c10.799,0,17.174,5.4,17.174,12.375c0,5.175-2.925,9.149-8.925,11.249v0.15c5.774,0.975,10.425,5.324,10.425,11.55
		c0,8.999-8.25,15.074-20.85,15.074c-6.674,0-12.225-1.575-15.299-3.45L743.726,587.517z"/>
</g>
<g>
	<path stroke="#FEFEE9" stroke-width="2.8346" d="M793.65,785.266v-10.949H772.5v-8.775l16.949-29.023h16.949v27.749h5.4v10.05h-5.4
		v10.949H793.65z M793.65,764.267v-8.325c0-3.149,0.226-6.3,0.375-9.749h-0.3c-1.574,3.3-2.925,6.449-4.725,9.824l-4.125,8.1
		l-0.075,0.15H793.65z"/>
</g>
<g>
	<path stroke="#FEFEE9" stroke-width="2.8346" d="M685.524,588.618h-19.049l-0.675,5.25c1.05-0.15,1.875-0.15,2.774-0.15
		c5.025,0,10.275,1.2,13.875,3.9c3.6,2.699,5.475,6.675,5.475,12.149c0,8.925-7.875,17.324-22.124,17.324
		c-6.149,0-11.325-1.275-14.175-2.7l2.25-10.125c2.176,1.051,6.825,2.325,11.175,2.325c4.125,0,8.999-1.5,8.999-6.074
		c0-4.425-3.898-6.9-13.574-6.9c-2.625,0-4.424,0.15-6.524,0.45l3.226-26.549h28.348V588.618z"/>
</g>
<g>
	<path stroke="#FEFEE9" stroke-width="2.8346" d="M573.1,574.193c-1.275-0.075-2.55-0.075-4.275,0
		c-9.975,0.45-14.024,4.574-15.375,9.225h0.225c2.475-2.1,5.55-3.075,9.675-3.075c7.95,0,15.225,5.55,15.225,15.975
		c0,9.975-7.95,17.774-18.674,17.774c-14.1,0-20.25-10.35-20.25-21.524c0-9,3.375-16.649,8.775-21.599
		c5.25-4.575,11.924-6.976,20.099-7.125c2.175-0.15,3.525,0,4.575,0.075V574.193z M559.75,604.266c3.225,0,5.175-3.149,5.175-7.274
		c0-3.45-1.65-7.199-6-7.199c-2.625,0-4.725,1.574-5.55,3.6c-0.3,0.6-0.375,1.425-0.375,2.85c0.3,3.975,2.25,8.024,6.675,8.024
		H559.75z"/>
</g>
<g>
	<path stroke="#FEFEE9" stroke-width="2.8346" d="M530.924,702.518v8.399l-19.574,40.349h-14.399l19.649-37.498v-0.15h-21.674v-11.1
		H530.924z"/>
</g>
<g>
	<path stroke="#FEFEE9" stroke-width="2.8346" d="M491.3,892.693c12.375,0,17.099,6.9,17.099,12.75c0,4.199-2.4,8.249-6.75,10.499
		v0.15c4.2,1.575,8.625,5.475,8.625,11.925c0,8.999-7.5,15.074-19.649,15.074c-13.424,0-18.899-7.35-18.899-13.649
		c0-5.85,3.225-9.675,8.25-11.925v-0.15c-4.425-2.475-6.75-6.374-6.75-10.649c0-8.475,7.799-14.024,17.999-14.024H491.3z
		 M491.15,933.942c3.15,0,5.325-2.176,5.325-5.025c0-3.524-2.775-5.925-6.3-6.824c-2.925,0.75-4.65,3-4.65,5.999
		c0,3,2.25,5.851,5.55,5.851H491.15z M490.775,901.693c-3.225,0-4.8,2.175-4.8,4.725s2.625,4.5,5.85,5.55
		c1.95-0.45,3.9-2.625,3.9-5.024c0-2.625-1.5-5.25-4.875-5.25H490.775z"/>
</g>
<g>
	<path stroke="#FEFEE9" stroke-width="2.8346" d="M267.001,830.516c1.5,0.15,2.55,0.15,4.8,0.075
		c3.375-0.075,6.825-0.825,9.375-2.25c3.15-1.8,5.175-4.574,6-7.35l-0.15-0.075c-1.95,1.801-4.875,2.775-9.075,2.775
		c-8.024,0-15.524-5.325-15.524-15.3c0-9.749,8.025-17.699,19.125-17.699c13.649,0,19.424,10.274,19.424,21.149
		c0,9.975-3,17.324-8.55,22.274c-5.025,4.499-12,6.749-20.624,6.899c-1.725,0.075-3.6-0.075-4.8-0.15V830.516z M281.175,800.443
		c-3,0-5.4,2.774-5.325,7.05c0,3.449,1.725,6.749,5.85,6.749c2.55,0,4.2-1.124,4.95-2.324c0.375-0.75,0.525-1.575,0.525-3.075
		c0.075-3.825-1.425-8.399-5.925-8.399H281.175z"/>
</g>
<g>
	<path stroke="#FEFEE9" stroke-width="2.8346" d="M252.175,634.443h-0.15l-9.6,4.35l-2.175-10.125l13.949-6.149h11.024v48.748
		h-13.049V634.443z"/>
	<path stroke="#FEFEE9" stroke-width="2.8346" d="M291.4,672.091c-13.95,0-19.125-12.3-19.125-25.124
		c0-13.199,5.475-25.274,19.199-25.274c14.25,0,19.125,12.675,19.125,25.124c0,14.399-6.075,25.274-19.125,25.274H291.4z
		 M291.55,661.966c3.45,0,5.55-4.574,5.55-15.074c0-10.274-2.025-14.999-5.625-14.999c-3.45,0-5.7,4.499-5.7,14.999
		c-0.075,10.574,2.175,15.074,5.7,15.074H291.55z"/>
</g>
<g>
	<path stroke="#FEFEE9" stroke-width="2.8346" d="M291.175,493.443h-0.15l-9.6,4.35l-2.175-10.125l13.949-6.149h11.024v48.748
		h-13.049V493.443z"/>
	<path stroke="#FEFEE9" stroke-width="2.8346" d="M326.65,493.443h-0.15l-9.6,4.35l-2.175-10.125l13.949-6.149H339.7v48.748H326.65
		V493.443z"/>
</g>
<g>
	<path stroke="#FEFEE9" stroke-width="2.8346" d="M302.175,270.443h-0.15l-9.6,4.35l-2.175-10.125l13.949-6.149h11.024v48.748
		h-13.049V270.443z"/>
	<path stroke="#FEFEE9" stroke-width="2.8346" d="M323.026,307.266v-8.175l6.75-5.925c9.899-8.55,14.924-13.649,15-18.599
		c0-3.525-2.325-6.075-7.275-6.075c-4.05,0-7.725,2.025-10.425,3.975l-3.675-9.675c3.75-2.774,9.9-5.1,16.799-5.1
		c11.325,0,18.074,6.15,18.074,15.75c0,7.799-5.55,14.099-11.324,18.824l-4.8,3.749v0.15H359.1v11.1H323.026z"/>
</g>
<g>
	<path stroke="#FEFEE9" stroke-width="2.8346" d="M480.175,215.443h-0.15l-9.6,4.35l-2.175-10.125l13.949-6.149h11.024v48.748
		h-13.049V215.443z"/>
	<path stroke="#FEFEE9" stroke-width="2.8346" d="M503.201,239.517c2.1,1.05,6.975,2.925,11.625,2.925c4.8,0,7.95-1.726,7.95-5.175
		c0-3.976-4.125-5.851-8.55-5.851h-5.1v-9.6h4.8c3.375,0,7.65-1.05,7.65-4.425c0-2.475-2.325-4.124-6.525-4.124
		c-4.125,0-8.475,1.725-10.424,2.774l-2.55-9.675c3.075-1.875,9.299-3.675,16.049-3.675c10.799,0,17.174,5.4,17.174,12.375
		c0,5.175-2.925,9.149-8.925,11.249v0.15c5.775,0.975,10.425,5.324,10.425,11.55c0,8.999-8.25,15.074-20.85,15.074
		c-6.674,0-12.224-1.575-15.299-3.45L503.201,239.517z"/>
</g>
<g>
	<path stroke="#FEFEE9" stroke-width="2.8346" d="M641.175,315.443h-0.149l-9.6,4.35l-2.176-10.125l13.949-6.149h11.025v48.748
		h-13.05V315.443z"/>
	<path stroke="#FEFEE9" stroke-width="2.8346" d="M682.125,352.266v-10.949h-21.149v-8.775l16.949-29.023h16.949v27.749h5.399v10.05
		h-5.399v10.949H682.125z M682.125,331.267v-8.325c0-3.149,0.225-6.3,0.375-9.749H682.2c-1.574,3.3-2.924,6.449-4.725,9.824
		l-4.125,8.1l-0.074,0.15H682.125z"/>
</g>
<g>
	<path stroke="#FEFEE9" stroke-width="2.8346" d="M454.175,408.443h-0.15l-9.6,4.35l-2.175-10.125l13.949-6.149h11.024v48.748
		h-13.049V408.443z"/>
	<path stroke="#FEFEE9" stroke-width="2.8346" d="M509,407.618H489.95l-0.675,5.25c1.05-0.15,1.875-0.15,2.775-0.15
		c5.025,0,10.274,1.2,13.875,3.9c3.6,2.699,5.475,6.675,5.475,12.149c0,8.925-7.875,17.324-22.124,17.324
		c-6.15,0-11.324-1.275-14.174-2.7l2.25-10.125c2.175,1.051,6.825,2.325,11.174,2.325c4.125,0,9-1.5,9-6.074
		c0-4.425-3.899-6.9-13.574-6.9c-2.625,0-4.425,0.15-6.525,0.45l3.225-26.549H509V407.618z"/>
</g>
</svg>
