<?xml version="1.0" encoding="utf-8"?>
<!-- Generator: Adobe Illustrator 18.0.0, SVG Export Plug-In . SVG Version: 6.00 Build 0)  -->
<!DOCTYPE svg PUBLIC "-//W3C//DTD SVG 1.1//EN" "http://www.w3.org/Graphics/SVG/1.1/DTD/svg11.dtd">
<svg version="1.1" id="Layer_1" xmlns="http://www.w3.org/2000/svg" xmlns:xlink="http://www.w3.org/1999/xlink" x="0px" y="0px"
	 viewBox="0.9 42.5 520.1 212" enable-background="new 0.9 42.5 520.1 212" xml:space="preserve">
<g>
	<g>
		
			<linearGradient id="SVGID_1_" gradientUnits="userSpaceOnUse" x1="114.5111" y1="203.0316" x2="114.5111" y2="127.1035" gradientTransform="matrix(0.8264 0 0 -0.8264 0 317.7686)">
			<stop  offset="0" style="stop-color:#85CEFB"/>
			<stop  offset="1" style="stop-color:#65A0FE"/>
		</linearGradient>
		<path fill="url(#SVGID_1_)" d="M94.6,212.8L94.6,212.8c-4.3,0-7.8-3.6-7.8-7.8v-47.1c0-4.3,3.6-7.8,7.8-7.8l0,0
			c4.3,0,7.8,3.6,7.8,7.8V205C102.5,209.2,98.9,212.8,94.6,212.8z"/>
		
			<linearGradient id="SVGID_2_" gradientUnits="userSpaceOnUse" x1="50.7111" y1="179.365" x2="50.7111" y2="236.3051" gradientTransform="matrix(0.8264 0 0 -0.8264 0 317.7686)">
			<stop  offset="0" style="stop-color:#85CEFB"/>
			<stop  offset="1" style="stop-color:#65A0FE"/>
		</linearGradient>
		<path fill="url(#SVGID_2_)" d="M41.9,169.5L41.9,169.5c-4.3,0-7.8-3.6-7.8-7.8v-31.4c0-4.3,3.6-7.8,7.8-7.8l0,0
			c4.3,0,7.8,3.6,7.8,7.8v31.4C49.8,166,46.2,169.5,41.9,169.5z"/>
		
			<linearGradient id="SVGID_3_" gradientUnits="userSpaceOnUse" x1="114.5111" y1="213.0164" x2="114.5111" y2="247.8037" gradientTransform="matrix(0.8264 0 0 -0.8264 0 317.7686)">
			<stop  offset="0" style="stop-color:#85CEFB"/>
			<stop  offset="1" style="stop-color:#65A0FE"/>
		</linearGradient>
		<path fill="url(#SVGID_3_)" d="M94.6,141.7L94.6,141.7c-4.3,0-7.8-3.6-7.8-7.8v-13.1c0-4.3,3.6-7.8,7.8-7.8l0,0
			c4.3,0,7.8,3.6,7.8,7.8v13.1C102.5,138.2,98.9,141.7,94.6,141.7z"/>
		
			<linearGradient id="SVGID_4_" gradientUnits="userSpaceOnUse" x1="83.6111" y1="268.365" x2="83.6111" y2="147.365" gradientTransform="matrix(0.8264 0 0 -0.8264 0 317.7686)">
			<stop  offset="0" style="stop-color:#85CEFB"/>
			<stop  offset="1" style="stop-color:#65A0FE"/>
		</linearGradient>
		<path fill="url(#SVGID_4_)" d="M69.1,196L69.1,196c-4.3,0-7.8-3.6-7.8-7.8v-84.5c0-4.3,3.6-7.8,7.8-7.8l0,0c4.3,0,7.8,3.6,7.8,7.8
			v84.4C77,192.5,73.4,196,69.1,196z"/>
		
			<linearGradient id="SVGID_5_" gradientUnits="userSpaceOnUse" x1="146.5111" y1="161.565" x2="146.5111" y2="282.565" gradientTransform="matrix(0.8264 0 0 -0.8264 0 317.7686)">
			<stop  offset="0" style="stop-color:#85CEFB"/>
			<stop  offset="1" style="stop-color:#65A0FE"/>
		</linearGradient>
		<path fill="url(#SVGID_5_)" d="M121.1,184.2L121.1,184.2c-4.3,0-7.8-3.6-7.8-7.8V92c0-4.3,3.6-7.8,7.8-7.8l0,0
			c4.3,0,7.8,3.6,7.8,7.8v84.4C128.9,180.7,125.4,184.2,121.1,184.2z"/>
	</g>
	<g>
		<g>
			<path fill="#323232" d="M198.2,130.1c8.7,0,15.6,6.2,15.6,14.9c0,8.9-6.7,14.9-15.6,14.9c-8.9,0-15.6-6.2-15.6-14.9
				C182.8,136.1,189.5,130.1,198.2,130.1z M198.2,154.8c5.3,0,9.4-4.1,9.4-9.9c0-5.8-4.3-9.9-9.4-9.9c-5.3,0-9.4,4.1-9.4,9.9
				C188.8,150.8,192.9,154.8,198.2,154.8z"/>
			<path fill="#323232" d="M240.2,151l7.9-20.7h6.2l-11.8,29.1h-4.8l-11.8-29.1h6.2L240.2,151z"/>
			<path fill="#323232" d="M268.8,130.6h17.8v5h-11.8v7.7h9.9v5h-9.9v6h12.3v5h-18.3V130.6z"/>
			<path fill="#323232" d="M315.7,150.5l9.1,9.1h-7.7l-8.4-8.9v8.9h-6v-29.1h10.1c7.2,0,11.5,4.6,11.5,10.1
				C324.3,145.7,321,149.3,315.7,150.5z M308.7,145.9h3.1c4.1,0,6.2-1.7,6.2-5.3c0-3.4-2.2-5.3-5.5-5.3h-3.8V145.9z"/>
		</g>
		<g>
			<path fill="#39C9EC" d="M361.1,159.4h-9.6v-28.8h9.6c9.4,0,15.9,5.3,15.9,14.4C377,154.1,370.5,159.4,361.1,159.4z M361.1,135.6
				h-3.8v19h3.8c5.5,0,9.6-3.1,9.6-9.4C370.7,138.7,366.6,135.6,361.1,135.6z"/>
			<path fill="#39C9EC" d="M408.9,155.1h-12.5l-1.7,4.3h-6.2l11.8-29.1h4.8l11.8,29.1h-6.2L408.9,155.1z M398.3,150.3h8.7l-4.3-11.3
				L398.3,150.3z"/>
			<path fill="#39C9EC" d="M435.1,135.6h-7.7v-5h21.4v5h-7.7v24h-6L435.1,135.6L435.1,135.6z"/>
			<path fill="#39C9EC" d="M479.8,155.1h-12.5l-1.7,4.3h-6.2l11.8-29.1h4.8l11.8,29.1h-6.2L479.8,155.1z M469.2,150.3h8.7l-4.3-11.3
				L469.2,150.3z"/>
		</g>
	</g>
</g>
</svg>
